<svg width="40" height="40" viewBox="0 0 40 40" fill="none" xmlns="http://www.w3.org/2000/svg">
<rect width="40" height="40" rx="10" fill="#E14242"/>
<path fill-rule="evenodd" clip-rule="evenodd" d="M27.3663 14.5944C27.7121 14.5944 28 14.8528 28 15.1815V15.4855C28 15.8063 27.7121 16.0727 27.3663 16.0727H12.6345C12.2879 16.0727 12 15.8063 12 15.4855V15.1815C12 14.8528 12.2879 14.5944 12.6345 14.5944H15.2263C15.7528 14.5944 16.2109 14.2576 16.3294 13.7824L16.4651 13.2368C16.676 12.4936 17.3702 12 18.1647 12H21.8353C22.6211 12 23.3231 12.4936 23.5263 13.1976L23.6715 13.7816C23.7891 14.2576 24.2472 14.5944 24.7746 14.5944H27.3663ZM26.0494 25.7072C26.32 23.4377 26.7938 18.0458 26.7938 17.9914C26.811 17.8266 26.7514 17.6706 26.633 17.545C26.5059 17.4274 26.3451 17.3578 26.1679 17.3578H13.8385C13.6604 17.3578 13.491 17.4274 13.3734 17.545C13.2541 17.6706 13.1953 17.8266 13.204 17.9914C13.2055 18.0014 13.2225 18.1913 13.251 18.5088C13.3772 19.9194 13.7288 23.8482 13.9561 25.7072C14.1169 27.0768 15.1153 27.9376 16.5616 27.9688C17.6777 27.992 18.8275 28 20.0032 28C21.1106 28 22.2353 27.992 23.3859 27.9688C24.8824 27.9456 25.88 27.1 26.0494 25.7072Z" fill="white"/>
</svg>
