<svg width="40" height="40" viewBox="0 0 40 40" fill="none" xmlns="http://www.w3.org/2000/svg">
<rect width="40" height="40" rx="10" fill="#21E440"/>
<path fill-rule="evenodd" clip-rule="evenodd" d="M17.6677 27.1361L25.4776 17.036C25.902 16.4913 26.053 15.8616 25.9115 15.2205C25.7888 14.6376 25.4304 14.0834 24.8928 13.6629L23.5817 12.6214C22.4404 11.7136 21.0256 11.8092 20.2144 12.8507L19.3372 13.9888C19.224 14.1312 19.2523 14.3414 19.3938 14.456C19.3938 14.456 21.6104 16.2333 21.6575 16.2716C21.8085 16.4149 21.9216 16.606 21.9499 16.8353C21.9971 17.2844 21.6858 17.7049 21.2237 17.7622C21.0067 17.7909 20.7992 17.724 20.6483 17.5998L18.3185 15.746C18.2054 15.661 18.0356 15.6791 17.9413 15.7938L12.4046 22.9604C12.0461 23.4095 11.9235 23.9923 12.0461 24.5561L12.7535 27.6234C12.7913 27.7858 12.9328 27.9005 13.1025 27.9005L16.2152 27.8623C16.7811 27.8527 17.3093 27.5947 17.6677 27.1361ZM22.0264 26.1806H27.1018C27.597 26.1806 27.9998 26.5887 27.9998 27.0903C27.9998 27.5929 27.597 28 27.1018 28H22.0264C21.5312 28 21.1284 27.5929 21.1284 27.0903C21.1284 26.5887 21.5312 26.1806 22.0264 26.1806Z" fill="white"/>
</svg>
