<svg width="40" height="40" viewBox="0 0 40 40" fill="none" xmlns="http://www.w3.org/2000/svg">
<rect width="40" height="40" rx="10" fill="#6365FF"/>
<path fill-rule="evenodd" clip-rule="evenodd" d="M16.264 12H23.728C26.448 12 28 13.536 28 16.264V23.736C28 26.448 26.456 28 23.736 28H16.264C13.536 28 12 26.448 12 23.736V16.264C12 13.536 13.536 12 16.264 12ZM20.6564 20.6638H22.9284C23.2964 20.6558 23.5924 20.3598 23.5924 19.9918C23.5924 19.6238 23.2964 19.3278 22.9284 19.3278H20.6564V17.0718C20.6564 16.7038 20.3604 16.4078 19.9924 16.4078C19.6244 16.4078 19.3284 16.7038 19.3284 17.0718V19.3278H17.0644C16.8884 19.3278 16.7204 19.3998 16.5924 19.5198C16.4724 19.6478 16.4004 19.815 16.4004 19.9918C16.4004 20.3598 16.6964 20.6558 17.0644 20.6638H19.3284V22.9278C19.3284 23.2958 19.6244 23.5918 19.9924 23.5918C20.3604 23.5918 20.6564 23.2958 20.6564 22.9278V20.6638Z" fill="white"/>
</svg>
