<svg width="16" height="16" viewBox="0 0 16 16" fill="none" xmlns="http://www.w3.org/2000/svg">
<path fill-rule="evenodd" clip-rule="evenodd" d="M15.3663 2.59436C15.7121 2.59436 16 2.85275 16 3.18155V3.48554C16 3.80634 15.7121 4.07273 15.3663 4.07273H0.634536C0.287876 4.07273 0 3.80634 0 3.48554V3.18155C0 2.85275 0.287876 2.59436 0.634536 2.59436H3.22628C3.75276 2.59436 4.21094 2.25756 4.32937 1.78237L4.4651 1.23678C4.67603 0.493592 5.37022 0 6.16469 0H9.83531C10.6211 0 11.3231 0.493592 11.5263 1.19758L11.6715 1.78157C11.7891 2.25756 12.2472 2.59436 12.7746 2.59436H15.3663ZM14.0494 13.7072C14.32 11.4377 14.7938 6.04576 14.7938 5.99137C14.811 5.82657 14.7514 5.67057 14.633 5.54497C14.5059 5.42738 14.3451 5.35778 14.1679 5.35778H1.83849C1.66041 5.35778 1.49097 5.42738 1.3734 5.54497C1.2541 5.67057 1.19531 5.82657 1.20396 5.99137C1.20555 6.00136 1.22255 6.19129 1.25097 6.50882C1.37722 7.91941 1.72885 11.8482 1.95607 13.7072C2.11686 15.0768 3.11535 15.9376 4.56164 15.9688C5.6777 15.992 6.82747 16 8.00318 16C9.11059 16 10.2353 15.992 11.3859 15.9688C12.8824 15.9456 13.88 15.1 14.0494 13.7072Z" fill="white"/>
</svg>
