<svg width="16" height="16" viewBox="0 0 16 16" fill="none" xmlns="http://www.w3.org/2000/svg">
<path fill-rule="evenodd" clip-rule="evenodd" d="M5.66772 15.1361L13.4776 5.036C13.902 4.49134 14.053 3.86164 13.9115 3.22047C13.7888 2.63759 13.4304 2.08338 12.8928 1.66294L11.5817 0.621397C10.4404 -0.286368 9.02559 -0.190814 8.21442 0.850727L7.33722 1.98878C7.22404 2.13115 7.25233 2.34137 7.39382 2.45604C7.39382 2.45604 9.61038 4.23335 9.65755 4.27157C9.80846 4.4149 9.92165 4.60601 9.94994 4.83534C9.9971 5.28444 9.68584 5.70488 9.22366 5.76221C9.00672 5.79088 8.79922 5.72399 8.6483 5.59977L6.31855 3.74602C6.20536 3.66098 6.03558 3.67913 5.94126 3.7938L0.404554 10.9604C0.0461304 11.4095 -0.0764882 11.9923 0.0461304 12.5561L0.753546 15.6234C0.791274 15.7858 0.932757 15.9005 1.10254 15.9005L4.21516 15.8623C4.7811 15.8527 5.3093 15.5947 5.66772 15.1361ZM10.0264 14.1806H15.1018C15.597 14.1806 15.9998 14.5887 15.9998 15.0903C15.9998 15.5929 15.597 16 15.1018 16H10.0264C9.53117 16 9.12842 15.5929 9.12842 15.0903C9.12842 14.5887 9.53117 14.1806 10.0264 14.1806Z" fill="white"/>
</svg>
