<svg width="18" height="18" viewBox="0 0 18 18" fill="none" xmlns="http://www.w3.org/2000/svg">
<g id="edit">
<g id="Edit Square">
<path id="Stroke 1" d="M9.00024 2.0625C3.79749 2.0625 2.06274 3.79725 2.06274 9C2.06274 14.2027 3.79749 15.9375 9.00024 15.9375C14.203 15.9375 15.9377 14.2027 15.9377 9" stroke="#130F26" stroke-width="1.5" stroke-linecap="round" stroke-linejoin="round"/>
<path id="Stroke 3" fill-rule="evenodd" clip-rule="evenodd" d="M14.6465 3.22797V3.22797C13.9018 2.56872 12.764 2.63772 12.1048 3.38247C12.1048 3.38247 8.82802 7.08372 7.69177 8.36847C6.55402 9.65247 7.38802 11.4262 7.38802 11.4262C7.38802 11.4262 9.26602 12.021 10.3865 10.755C11.5078 9.48897 14.801 5.76972 14.801 5.76972C15.4603 5.02497 15.3905 3.88722 14.6465 3.22797Z" stroke="#130F26" stroke-width="1.5" stroke-linecap="round" stroke-linejoin="round"/>
<path id="Stroke 5" d="M11.2568 4.35059L13.9531 6.73784" stroke="#130F26" stroke-width="1.5" stroke-linecap="round" stroke-linejoin="round"/>
</g>
</g>
</svg>
