<svg width="33" height="32" viewBox="0 0 33 32" fill="none" xmlns="http://www.w3.org/2000/svg">
<path fill-rule="evenodd" clip-rule="evenodd" d="M16.0189 22.5544C15.4027 22.5544 14.9026 22.0543 14.9026 21.4381V10.5328C14.9026 9.9166 15.4027 9.4165 16.0189 9.4165C16.6351 9.4165 17.1351 9.9166 17.1351 10.5328V21.4381C17.1351 22.0543 16.6351 22.5544 16.0189 22.5544Z" fill="white"/>
<path fill-rule="evenodd" clip-rule="evenodd" d="M21.4763 17.1017H10.5621C9.94441 17.1017 9.4458 16.6016 9.4458 15.9854C9.4458 15.3692 9.94441 14.8691 10.5621 14.8691H21.4763C22.0925 14.8691 22.5926 15.3692 22.5926 15.9854C22.5926 16.6016 22.0925 17.1017 21.4763 17.1017Z" fill="white"/>
<path fill-rule="evenodd" clip-rule="evenodd" d="M9.04422 2.23242C4.91845 2.23242 2.25129 5.05586 2.25129 9.4287V22.571C2.25129 26.9439 4.91845 29.7673 9.04422 29.7673H22.9932C27.1205 29.7673 29.7862 26.9439 29.7862 22.571V9.4287C29.7862 5.05586 27.1205 2.23242 22.9932 2.23242H9.04422ZM22.9936 32H9.04453C3.64621 32 0.019043 28.2106 0.019043 22.5712V9.42884C0.019043 3.7894 3.64621 0 9.04453 0H22.9936C28.3919 0 32.019 3.7894 32.019 9.42884V22.5712C32.019 28.2106 28.3919 32 22.9936 32Z" fill="white"/>
</svg>
