<svg width="4" height="12" viewBox="0 0 4 12" fill="none" xmlns="http://www.w3.org/2000/svg">
<path fill-rule="evenodd" clip-rule="evenodd" d="M0.700195 2.10029C0.700195 1.38232 1.28223 0.800293 2.0002 0.800293C2.71817 0.800293 3.3002 1.38232 3.3002 2.10029C3.3002 2.81826 2.71817 3.40029 2.0002 3.40029C1.28223 3.40029 0.700195 2.81826 0.700195 2.10029ZM2.0002 4.70029C1.28223 4.70029 0.700195 5.28232 0.700195 6.00029C0.700195 6.71826 1.28223 7.30029 2.0002 7.30029C2.71817 7.30029 3.3002 6.71826 3.3002 6.00029C3.3002 5.28232 2.71817 4.70029 2.0002 4.70029ZM0.700195 9.90029C0.700195 9.18232 1.28223 8.60029 2.0002 8.60029C2.71817 8.60029 3.3002 9.18232 3.3002 9.90029C3.3002 10.6183 2.71817 11.2003 2.0002 11.2003C1.28223 11.2003 0.700195 10.6183 0.700195 9.90029Z" fill="black"/>
</svg>
